HIERARCHY
ROOT Hips
{
	OFFSET 0.000000 0.000000 0.000000
	CHANNELS 6 Xposition Yposition Zposition Zrotation Yrotation Xrotation 
	JOINT LHipJoint
	{
		OFFSET 0.000000 0.000000 0.000000
		CHANNELS 3 Zrotation Yrotation Xrotation
		JOINT LeftUpLeg
		{
			OFFSET 1.363060 -1.794630 0.839290
			CHANNELS 3 Zrotation Yrotation Xrotation
			JOINT LeftLeg
			{
				OFFSET 2.448110 -6.726130 0.000000
				CHANNELS 3 Zrotation Yrotation Xrotation
				JOINT LeftFoot
				{
					OFFSET 2.562200 -7.039590 0.000000
					CHANNELS 3 Zrotation Yrotation Xrotation
					JOINT LeftToeBase
					{
						OFFSET 0.157640 -0.433110 2.322550
						CHANNELS 3 Zrotation Yrotation Xrotation
						End Site
						{
							OFFSET 0.000000 0.000000 0.000000
						}
					}
				}
			}
		}
	}
	JOINT RHipJoint
	{
		OFFSET 0.000000 0.000000 0.000000
		CHANNELS 3 Zrotation Yrotation Xrotation
		JOINT RightUpLeg
		{
			OFFSET -1.305520 -1.794630 0.839290
			CHANNELS 3 Zrotation Yrotation Xrotation
			JOINT RightLeg
			{
				OFFSET -2.542530 -6.985550 0.000000
				CHANNELS 3 Zrotation Yrotation Xrotation
				JOINT RightFoot
				{
					OFFSET -2.568260 -7.056230 0.000000
					CHANNELS 3 Zrotation Yrotation Xrotation
					JOINT RightToeBase
					{
						OFFSET -0.164730 -0.452590 2.363150
						CHANNELS 3 Zrotation Yrotation Xrotation
						End Site
						{
							OFFSET 0.000000 0.000000 0.000000
						}
					}
				}
			}
		}
	}
	JOINT LowerBack
	{
		OFFSET 0.000000 0.000000 0.000000
		CHANNELS 3 Zrotation Yrotation Xrotation
		JOINT Spine
		{
			OFFSET 0.028270 2.035590 -0.193380
			CHANNELS 3 Zrotation Yrotation Xrotation
			JOINT Spine1
			{
				OFFSET 0.056720 2.048850 -0.042750
				CHANNELS 3 Zrotation Yrotation Xrotation
				JOINT Neck
				{
					OFFSET 0.000000 0.000000 0.000000
					CHANNELS 3 Zrotation Yrotation Xrotation
					JOINT Neck1
					{
						OFFSET -0.054170 1.746240 0.172020
						CHANNELS 3 Zrotation Yrotation Xrotation
						JOINT Head
						{
							OFFSET 0.104070 1.761360 -0.123970
							CHANNELS 3 Zrotation Yrotation Xrotation
							End Site
							{
								OFFSET 0.000000 0.000000 0.000000
							}
						}
					}
				}
				JOINT LeftShoulder
				{
					OFFSET 0.000000 0.000000 0.000000
					CHANNELS 3 Zrotation Yrotation Xrotation
					JOINT LeftArm
					{
						OFFSET 3.362410 1.200890 -0.311210
						CHANNELS 3 Zrotation Yrotation Xrotation
						JOINT LeftForeArm
						{
							OFFSET 4.983000 -0.000000 -0.000000
							CHANNELS 3 Zrotation Yrotation Xrotation
							JOINT LeftHand
							{
								OFFSET 3.483560 -0.000000 -0.000000
								CHANNELS 3 Zrotation Yrotation Xrotation
								JOINT LeftFingerBase
								{
									OFFSET 0.000000 0.000000 0.000000
									CHANNELS 3 Zrotation Yrotation Xrotation
									JOINT LeftHandIndex1
									{
										OFFSET 0.715260 -0.000000 -0.000000
										CHANNELS 3 Zrotation Yrotation Xrotation
										End Site
										{
											OFFSET 0.000000 0.000000 0.000000
										}
									}
								}
								JOINT LThumb
								{
									OFFSET 0.000000 0.000000 0.000000
									CHANNELS 3 Zrotation Yrotation Xrotation
									End Site
									{
										OFFSET 0.000000 0.000000 0.000000
									}
								}
							}
						}
					}
				}
				JOINT RightShoulder
				{
					OFFSET 0.000000 0.000000 0.000000
					CHANNELS 3 Zrotation Yrotation Xrotation
					JOINT RightArm
					{
						OFFSET -3.136600 1.374050 -0.404650
						CHANNELS 3 Zrotation Yrotation Xrotation
						JOINT RightForeArm
						{
							OFFSET -5.241900 -0.000000 -0.000000
							CHANNELS 3 Zrotation Yrotation Xrotation
							JOINT RightHand
							{
								OFFSET -3.444170 -0.000000 -0.000000
								CHANNELS 3 Zrotation Yrotation Xrotation
								JOINT RightFingerBase
								{
									OFFSET 0.000000 0.000000 0.000000
									CHANNELS 3 Zrotation Yrotation Xrotation
									JOINT RightHandIndex1
									{
										OFFSET -0.622530 -0.000000 -0.000000
										CHANNELS 3 Zrotation Yrotation Xrotation
										End Site
										{
											OFFSET 0.000000 0.000000 0.000000
										}
									}
								}
								JOINT RThumb
								{
									OFFSET 0.000000 0.000000 0.000000
									CHANNELS 3 Zrotation Yrotation Xrotation
									End Site
									{
										OFFSET 0.000000 0.000000 0.000000
									}
								}
							}
						}
					}
				}
			}
		}
	}
}
MOTION
Frames: 4
Frame Time: 0.008333
-4.264516 16.296042 -1.562387 54.550745 85.924419 74.625026 -9.899570 1.190721 0.791474 -12.464995 -0.116489 -30.756835 -2.127062 1.382581 41.944861 2.635978 9.540273 -25.066965 -3.456199 -0.000000 -37.241300 10.659392 -0.122045 1.031800 8.682753 4.762146 -43.600467 -1.351748 -4.433695 72.375816 -3.229372 -14.039982 -19.842755 2.563800 0.000000 -16.630400 -1.465000 -3.302279 -1.605241 -0.719174 -3.234897 -3.440530 -6.655248 -3.196734 -1.589561 10.595414 -13.076146 -8.380187 -3.392975 -0.246034 -0.248755 0.000000 0.000000 0.000000 2.438041 5.207798 0.121312 -70.511226 -4.071777 30.771824 -179.408080 -77.644659 179.938580 8.408480 -3.618327 -0.314321 -0.251143 0.597194 -0.000000 0.000000 0.000000 0.000000 0.000000 0.000000 0.000000 12.347399 -8.586159 -0.076097 74.330163 -5.708826 27.672995 -179.986349 88.256740 179.948886 -9.425562 7.979084 -0.707405 0.153536 -0.479461 0.000000 0.000000 0.000000 0.000000 0.000000 0.000000 0.000000 
-4.038339 16.371198 -1.529369 49.915180 85.703429 69.916176 -9.988900 1.313579 0.739455 -12.228674 0.347218 -29.011239 -2.124376 1.259172 40.242966 2.561092 9.667293 -23.864829 -3.245900 0.000000 -38.631200 10.447118 -0.064057 1.141972 8.950014 5.014997 -44.017444 -1.126121 -4.302947 70.190755 -3.255462 -13.729180 -20.164808 2.585600 0.000000 -16.437800 -1.278432 -3.409248 -1.654884 -0.640979 -3.353797 -3.439792 -6.549569 -3.314191 -1.553950 10.569496 -13.429372 -8.446038 -3.377079 -0.244787 -0.260016 0.000000 0.000000 0.000000 2.968899 5.088544 0.024581 -71.172584 -4.070825 30.915366 -179.365808 -76.624196 179.940733 7.959670 -3.764949 -0.309096 -0.239950 0.614888 -0.000000 0.000000 0.000000 0.000000 0.000000 0.000000 0.000000 12.164102 -8.987867 -0.100184 73.709443 -6.430363 28.088636 179.982536 87.169788 179.952165 -8.844251 8.331290 -0.691980 0.144850 -0.487807 0.000000 0.000000 0.000000 0.000000 0.000000 0.000000 0.000000 
-3.810278 16.453997 -1.492694 45.456841 85.440405 65.357185 -10.074456 1.450090 0.672268 -11.977227 0.886510 -27.216935 -2.113884 1.142132 38.445006 2.460919 9.737036 -22.394113 -2.961800 0.000000 -40.537499 10.233609 -0.024743 1.244878 9.249410 5.224982 -44.247207 -0.879309 -4.149791 67.637008 -3.252971 -13.280147 -20.264052 2.526500 0.000000 -16.870000 -1.096076 -3.513011 -1.681824 -0.564699 -3.468870 -3.434438 -6.445104 -3.427705 -1.512647 10.543012 -13.775386 -8.519498 -3.358489 -0.243173 -0.273853 0.000000 0.000000 0.000000 3.434841 5.018891 -0.065098 -71.730020 -4.033429 31.073050 -179.326934 -75.628453 179.942412 7.601954 -3.889036 -0.304562 -0.231062 0.630935 0.000000 0.000000 0.000000 0.000000 0.000000 0.000000 0.000000 11.978925 -9.379084 -0.127374 73.119601 -7.087889 28.491605 179.950149 86.144634 179.955868 -8.186424 8.689762 -0.667073 0.134229 -0.496346 0.000000 0.000000 0.000000 0.000000 0.000000 0.000000 0.000000 
-3.580445 16.543131 -1.452571 41.254356 85.134927 61.023493 -10.159418 1.600126 0.587827 -11.705678 1.515603 -25.384738 -2.095398 1.034949 36.566619 2.332768 9.729109 -20.631120 -2.599200 0.000000 -43.002200 10.019502 -0.007624 1.340187 9.585922 5.386021 -44.282904 -0.613893 -3.974164 64.716251 -3.217820 -12.693406 -20.116111 2.384400 0.000000 -17.919700 -0.914535 -3.611882 -1.684998 -0.490066 -3.578607 -3.425573 -6.341960 -3.536035 -1.469927 10.506240 -14.104679 -8.591208 -3.336948 -0.241286 -0.287589 0.000000 0.000000 0.000000 3.821312 4.978981 -0.147054 -72.178233 -3.947293 31.234790 -179.293111 -74.674556 179.943621 7.328158 -3.992869 -0.301223 -0.224250 0.645152 0.000000 0.000000 0.000000 0.000000 0.000000 0.000000 0.000000 11.781830 -9.752557 -0.156268 72.582776 -7.686828 28.858392 179.918118 85.227071 179.959565 -7.505322 9.019593 -0.633786 0.122525 -0.504004 0.000000 0.000000 0.000000 0.000000 0.000000 0.000000 0.000000 
